<?xml version="1.0" encoding="utf-8"?>
<!-- Generator: Adobe Illustrator 16.0.0, SVG Export Plug-In . SVG Version: 6.00 Build 0)  -->
<!DOCTYPE svg PUBLIC "-//W3C//DTD SVG 1.1//EN" "http://www.w3.org/Graphics/SVG/1.1/DTD/svg11.dtd">
<svg version="1.1" id="Layer_1" xmlns="http://www.w3.org/2000/svg" xmlns:xlink="http://www.w3.org/1999/xlink" x="0px" y="0px"
	 width="130px" height="130px" viewBox="0 0 130 130" enable-background="new 0 0 130 130" xml:space="preserve">
<g>
	<g id="Shape_1_copy_3_32_">
		<ellipse fill="#aa98fe" cx="65" cy="65" rx="64" ry="64.017"/>
	</g>
	<g id="SoundCloud_icon">
		<path fill="#FFFFFF" d="M40.479,51.689c-0.636,0-1.151,0.351-1.175,0.797L38.446,71.5l0.858,9.269
			c0.023,0.441,0.539,0.792,1.175,0.792c0.63,0,1.146-0.349,1.171-0.796l0.969-9.265L41.65,52.486
			C41.625,52.04,41.109,51.689,40.479,51.689z M24.568,65.596c-0.424,0-0.768,0.135-0.8,0.311l-1.204,5.896l1.204,5.705
			c0.032,0.178,0.376,0.311,0.8,0.311c0.42,0,0.764-0.133,0.801-0.311l1.366-5.705l-1.366-5.898
			C25.332,65.73,24.988,65.596,24.568,65.596z M32.432,56.677c-0.529,0-0.965,0.283-0.992,0.645L30.412,71.54l1.027,9.38
			c0.027,0.357,0.463,0.643,0.992,0.643c0.526,0,0.959-0.28,0.994-0.643l1.158-9.38l-1.158-14.219
			C33.391,56.96,32.958,56.677,32.432,56.677z M48.462,51.691c-0.732,0-1.32,0.409-1.338,0.935l-0.706,18.972l0.709,9.039
			c0.015,0.521,0.603,0.932,1.335,0.932c0.729,0,1.315-0.405,1.335-0.93l0.794-9.041l-0.794-18.972
			C49.777,52.101,49.19,51.691,48.462,51.691z M94.017,60.636c-1.473,0-2.878,0.353-4.159,0.871
			c-0.855-9.371-9.667-17.78-19.581-17.78c-2.425,0-4.791,0.461-6.879,1.242c-0.812,0.305-1.028,0.616-1.035,1.223v34.126
			c0.008,0.637,0.519,1.168,1.16,1.229c0.027,0.002,26.689-0.045,30.494-0.045c6.14,0,12.106-3.956,12.106-10.464
			C106.123,63.622,99.958,60.636,94.017,60.636z M56.319,48.709c-0.811,0-1.478,0.488-1.49,1.085l-0.563,21.781
			c0,0.015,0.563,8.948,0.563,8.948c0.013,0.592,0.68,1.079,1.49,1.079c0.81,0,1.479-0.48,1.491-1.079l0.628-8.94l-0.628-21.789
			C57.798,49.196,57.129,48.709,56.319,48.709z"/>
	</g>
</g>
</svg>
